<?xml version="1.0" encoding="utf-8"?>
<!-- Generator: Adobe Illustrator 22.0.1, SVG Export Plug-In . SVG Version: 6.00 Build 0)  -->
<svg version="1.1" id="Layer_1" xmlns="http://www.w3.org/2000/svg" xmlns:xlink="http://www.w3.org/1999/xlink" x="0px" y="0px"
	 viewBox="0 0 2000 1322.6" style="enable-background:new 0 0 2000 1322.6;" xml:space="preserve">
<style type="text/css">
	.st0{display:none;}
	.st1{display:inline;fill:#21D8DE;}
	.st2{display:inline;fill:#11B9C1;}
	.st3{display:inline;fill:#FCEE21;}
	.st4{display:inline;fill:#F4D451;}
	.st5{display:inline;fill:#FF4C4D;}
	.st6{display:inline;fill:#F33A3A;}
	.st7{display:inline;fill:#F96B6B;}
	.st8{display:inline;fill:#027372;}
	.st9{display:inline;fill:#02ACAB;}
	.st10{display:inline;}
	.st11{fill:#81E3E2;}
	.st12{display:inline;fill:#42C8C6;}
	.st13{display:none;enable-background:new    ;}
	.st14{font-family:'ArialMT';}
	.st15{font-size:358.8721px;}
	.st16{fill:#5BC0DE;}
	.st17{fill:#D9534F;}
	.st18{display:inline;fill:#D9534F;}
	.st19{font-size:167.9659px;}
	.st20{display:inline;fill:#F0AD4E;}
	.st21{font-size:237.6998px;}
	.st22{display:inline;fill:#0275D8;}
	.st23{font-size:290.9563px;}
	.st24{fill:#A8E83A;}
	.st25{fill:#77DD00;}
	.st26{fill:#74BC04;}
	.st27{fill:#73CC00;}
	.st28{fill:#6CB504;}
</style>
<g class="st0">
	<path class="st1" d="M1007.4,630.1l-500.1,406.5c-3.2,2.6-7.8,2.1-10.4-1.1l-469-577c-9.5-11.6-7.7-28.8,3.9-38.2L495.6,43.5
		c11.6-9.5,28.8-7.7,38.2,3.9L1007.4,630.1z"/>
	<path class="st2" d="M448.1,95.6l485.1,594.9l74.2-60.3L533.8,47.4c-9.5-11.6-26.6-13.4-38.2-3.9l-55.7,45.3
		C443,90.4,445.8,92.7,448.1,95.6z"/>
	<path class="st3" d="M1100.5,784l-592.1,254.3c-3.8,1.6-8.1-0.1-9.7-3.9L205.3,351.3c-5.9-13.8,0.5-29.8,14.2-35.7l549-235.8
		c13.8-5.9,29.8,0.5,35.7,14.2L1100.5,784z"/>
	<path class="st4" d="M713.1,128.1L1014.4,821l86.1-37L804.2,94c-5.9-13.8-21.9-20.2-35.7-14.2l-75.3,32.3
		C701.7,113.8,709.4,119.5,713.1,128.1z"/>
	<path class="st5" d="M1124.2,990.2L509,1040.7c-4.1,0.3-7.6-2.7-8-6.8l-60.8-741c-1.2-15,9.9-28.1,24.9-29.3l391.1-32.1L1106.6,444
		l42.4,516.9C1150.3,975.8,1139.1,988.9,1124.2,990.2z"/>
	<path class="st6" d="M912.2,279.1l17.1,208c0.7,8.7,8.4,15.2,17.1,14.5l67-5.5l36.1,439.4c1.2,15-9.9,28.1-24.9,29.3L498.9,1008
		l2.1,26c0.3,4.1,3.9,7.1,8,6.8l615.2-50.5c15-1.2,26.1-14.4,24.9-29.3l-42.4-516.9L912.2,279.1z"/>
	<path class="st7" d="M856.1,231.5L1106.6,444l-215.7,17.7c-8.7,0.7-16.4-5.8-17.1-14.5L856.1,231.5z"/>
</g>
<g class="st0">
	<polygon class="st8" points="578,266.1 634.2,540.7 1047.4,37.4 	"/>
	<polygon class="st9" points="752.8,421.8 634.2,540.7 654.4,367.8 730.1,369.9 	"/>
	<g class="st10">
		<polygon class="st11" points="1047.4,37.4 591.6,332.4 467.6,262.6 		"/>
		<polygon class="st11" points="1047.4,37.4 1046.8,39.1 807.6,451.9 654.4,367.8 		"/>
	</g>
	<polygon class="st12" points="807.6,451.9 1046.8,39.1 883.8,493.7 	"/>
</g>
<text transform="matrix(1 0 0 1 527.2765 841.8984)" class="st13 st14 st15">356</text>
<path class="st0" d="M1361.3,857.6c-88.1,0.1-174-13-258.5-39.3c-9.5-3-18.7,7-16,17c8.2,30.8,17.9,61.2,28.6,91.1
	c-131.8,51.3-266.1,95-402.7,129.5c-121.5,30.7-262.2,72.9-386.1,33.2c-148.5-47.7-184.8-217-140.5-359
	c42.2-135.3,134.5-277.9,262.3-331.9c6.6-2.8,4.2-13-3-11.5C316,414.6,222.8,566,174.9,686.1C125,811.2,123.2,974.8,231,1067.6
	c101,87,245.1,69.1,363.8,44.5c180.5-37.4,357.8-92.2,530.3-159.5c8.3,21.6,17.3,42.9,26.8,63.9c6,17.5,12.4,34.9,19.3,52.1
	c3.7,9.3,15,7.7,20.9,2.8c66.9-55.7,126.3-118.7,178.6-189.8C1377.4,872.5,1373.8,857.6,1361.3,857.6z M1255,879.3
	c1.8,7.8,3.2,15.5,4.3,23.2c-3.7-7.9-7.4-16-10.9-24.1C1250.7,878.7,1252.8,879,1255,879.3z M1223,905.9
	c-5.1-11.4-10.5-22.6-15.9-33.9c4.3,0.8,8.5,1.5,12.8,2.2c0,0.7-0.3,1.4-0.2,2.1C1220.7,886.2,1221.8,896.1,1223,905.9z
	 M1178.1,873.1c1.2,6.9,2.3,13.9,3.4,20.8c-3.1-8.9-6.2-17.9-9.4-26.8c-0.3-0.8-0.6-1.5-1-2.1c2.4,0.5,4.9,1,7.3,1.6
	C1178,868.5,1177.7,870.7,1178.1,873.1z M1147,874.4c2.9,12.6,5.3,25.2,7.4,37.7c-5.7-17.8-11.4-35.6-17.1-53.4
	c-0.3-0.9-0.8-1.5-1.2-2.3c5.1,1.3,10.2,2.6,15.3,3.9C1147.7,863.2,1145.6,868,1147,874.4z M1186.1,1032.8c2-2.2,3.2-5.3,3.3-9.2
	c0-9.9-0.3-19.7-0.7-29.5c2.1,6.1,4.3,12.2,6.4,18.3c2,5.8,7.1,8.9,12.3,9.4c-6.3,5.7-12.6,11.3-19,16.9
	C1187.5,1036.7,1186.8,1034.8,1186.1,1032.8z M1216.6,958.1c5.5,13.3,10.8,26.6,15.9,40.2c-3.9,3.7-7.7,7.5-11.6,11.2
	c0-0.3,0.1-0.5,0.1-0.8C1219.8,991.7,1218.3,974.9,1216.6,958.1z M1255.1,954.2c2.5,4.6,4.9,9.2,7.5,13.8c-1.8,1.8-3.5,3.7-5.3,5.5
	C1256.5,967,1255.8,960.6,1255.1,954.2z"/>
<g>
	<path class="st16" d="M407.6,637.7c0,63.3-45.4,108.6-136.1,135.8c71.5,25.4,107.2,69.5,107.2,132c0,48-20.2,87.9-60.6,119.4
		c-40.4,31.6-91.8,47.3-154.2,47.3c-46.6,0-82.3-9.7-107.2-29c-24.9-19.4-37.4-46.7-37.4-82c0-12.7,3.2-22.2,9.7-28.4
		s19.5-12.6,39.1-19.1s32.2-9.7,37.8-9.7c3.5,0,6.6,1.7,9,5.1c2.4,3.4,3.6,7.4,3.6,12c0,3.9-2.6,11.7-7.8,23.6
		c-5.2,12-7.8,24-7.8,35.8c0,17.3,6.7,32.1,20,44.3c13.3,12.2,29.6,18.3,48.6,18.3c30.3,0,54.3-14.7,71.9-44.1
		c17.7-29.4,26.6-62.6,26.6-99.8c0-26.7-5.9-48.9-17.9-66.6c-12-17.7-27.1-26-45.4-25l-27.1,1.6c-8.9,0.7-13.3-4.5-13.3-15.6
		c0-13,1.9-21.4,5.5-25.2c3.6-3.9,9.6-5.7,17.7-5.7c21.1,0,37.9-1.6,50.5-4.8s24.3-10.9,35.1-23.3c10.8-12.4,19.5-27.9,25.9-46.8
		c6.5-18.9,9.7-37.5,9.7-55.8c0-22.9-7-41.8-20.9-56.4c-14-14.7-31.8-22-53.4-22c-19.8,0-37,6-51.5,18s-21.8,26-21.8,42.1
		c0,6.1,1.9,13.5,5.7,22.2c3.9,8.6,5.7,15.4,5.7,20.3c0,6.7-8.9,14.7-26.7,24.1c-17.8,9.5-30.5,14.2-38.1,14.2
		c-5.8,0-10.9-3.5-15.2-10.7c-4.4-7.1-6.5-15.7-6.5-25.9c0-32.3,17-63.4,50.9-93.2c34-29.9,76.6-44.8,128-44.8
		c41.7,0,75.6,10.9,101.7,32.8C394.6,574.5,407.6,602.8,407.6,637.7z"/>
	<path class="st16" d="M1229.5,519.8c-7.4,31-16.8,54.1-28,69.1c-11.4,15-24.3,24.7-39,29c-14.6,4.4-34.1,6.5-58.2,6.5
		c-24.7,0-53.7-2.1-87.4-6.1l-32.1,117.9c22.6-5.8,43.7-8.7,63.3-8.7c45.5,0,83.4,14.8,113.8,44.3c30.6,29.6,45.8,66.5,45.8,110.6
		c0,53.4-20.1,98.3-60.3,134.7c-40.2,36.4-89.9,54.6-149.2,54.6c-45.5,0-81.6-10.9-107.9-32.8c-26.5-21.9-39.7-45.6-39.7-71.4
		c0-8.1,1.1-14.7,3.4-19.7s6.9-9.3,14-13c7-3.6,18.1-8.9,33.3-15.6s25.7-10.1,31.2-10.1c6.1,0,9.2,3,9.2,9.2
		c0,2.5-1.4,11.5-4.2,26.7s-4.2,24.3-4.2,27.1c0,20.3,6.1,37.2,18.5,50.5c12.3,13.3,28,20,47.1,20c27.2,0,50.5-15.7,70-47.1
		c19.5-31.5,29.2-69.9,29.2-115.4c0-32.1-8.7-57.2-26.1-75.3c-17.4-18.2-41.6-27.3-72.3-27.3c-14,0-24.8,0.9-32.4,2.8
		c-7.6,1.9-12.7,2.8-15.2,2.8c-4.6,0-6.9-2.4-6.9-7.3c0-1.8,1.6-8.2,4.6-19.5l59.5-214.1c4.1-15,10.3-22.5,18.6-22.5
		c1.8,0,6.1,0.7,13,2.3c24.4,5.6,51.2,8.4,80.5,8.4C1155.5,530.6,1191.4,527,1229.5,519.8z"/>
	<path class="st16" d="M712,738.5c26.7,0,50.2,12.3,70.4,36.8c20.2,24.6,30.3,53.4,30.3,86.8c0,54.2-21.7,102.6-64.9,145.3
		s-92.5,64.1-147.6,64.1c-42.2,0-76.5-16.1-102.6-48.4c-26.1-32.3-39.3-74.8-39.3-127.4c0-67.2,16.9-129.5,50.5-187
		s75.3-103.3,124.9-137.5s86.4-51.4,110.2-51.4c0.5,0,3.9,1.9,10.1,5.6c6.2,3.7,9.4,6.9,9.4,9.5c0,2.3-3,5.4-9.2,9.3
		c-42,23.3-78.2,60.5-109,111.5c-30.6,50.9-53.6,107.7-68.9,170.2c-15.2,62.5-22.9,109.4-22.9,140.6c0,22.9,5,41.4,15.1,55.4
		c10,14.1,22.9,21.1,38.7,21.1c28,0,51.2-22.2,69.8-66.6s28-85.5,28-123.5c0-17.1-4.5-31.9-13.3-44.5c-8.9-12.6-18.9-18.9-29.8-18.9
		c-6.7,0-13.1,1.3-19.7,3.6c-6.5,2.4-10.4,3.6-11.7,3.6c-1.8,0-3.6-1.1-5.5-3.4c-1.9-2.3-2.8-4.8-2.8-7.6s10.5-11.5,31.5-25.9
		C674.8,745.7,694.1,738.5,712,738.5z"/>
</g>
<g>
	<path class="st17" d="M557.5,254c-30.2,29.5-56.1,51.7-77.7,66.4c-21.5,14.8-42.5,22.1-62.8,22.1c-16,0-28.6-5.5-37.9-16.5
		s-14-25.8-14-44.5c0-26.1,6.5-59.3,19.6-99.4c13.1-40.2,19.6-64.6,19.6-73.3c0-7.7-4-11.6-12-11.6c-2.4,0-5.3,0.9-8.7,2.5
		c-3.6,1.7-7.7,4.1-12.3,7.3c-4.6,3.4-9.6,7.5-14.9,12.3s-10.9,10.4-16.7,16.7c-6.3,6.3-12.6,13.2-18.9,20.7
		c-10.6,12.6-16.9,23.1-18.9,31.6L290,240.2l-22,85.7l-91.9,16.6L211.3,193c2.7-10.9,5.8-26.9,9.4-47.9c3.6-21,5.4-33.6,5.4-37.7
		c0-8.2-2.8-12.3-8.3-12.3c-1.7,0-4.1,0.8-7.3,2.5c-3.6,1.7-7.7,4.2-12.3,7.6c-5.3,3.9-11,8.5-17.1,13.8c-6.5,5.8-13.6,12.5-21,20
		c-8,8-16.2,16.8-24.7,26.5c-11.6,13.1-18.9,28.3-21.8,45.7c-3.9,20.8-6.5,39.4-8,55.9c-1.7,16.5-2.7,34.8-2.9,55.2l-80.6,19.2
		c-1.9-27.8-2.9-51-2.9-69.7c0-44.3,4.6-82.8,13.8-115.6S57.2,85.1,78,41.3l87.8-17.1c-15.7,39.4-27.9,77.5-36.7,114.3
		C194.4,62.9,244.2,25,278.8,25c12.6,0,22.8,5.1,30.7,15.4c7.9,10.3,11.8,23.8,11.8,40.5c0,7.7-1.2,22-3.6,42.8
		c40.9-40.9,70.2-67.6,88-80C423.4,31.2,439.8,25,454.8,25c13.3,0,24.2,5.3,32.7,16c8.5,10.6,12.7,24.2,12.7,40.6
		c0,25.9-7.1,59.2-21.4,99.8c-14.2,40.7-21.4,67.5-21.4,80.6c0,13.5,5,20.3,14.9,20.3c6.3,0,15-4.2,26.3-12.5
		c11.2-8.3,30.9-27.5,58.9-57.5V254z"/>
	<path class="st17" d="M967.8,234.6c-30.7,29.7-102.5,79.6-169.9,110.7c-22.6,64-47.9,109.2-76,135.7s-57.4,39.7-87.9,39.7
		c-15.5,0-27.9-4.7-37.2-14.2c-9.3-9.4-14-22-14-37.7c0-47.7,43.7-90.8,131-129.6l22.1-78c-45.7,51-85.9,76.6-120.5,76.6
		c-18.6,0-33.7-7.6-45.2-22.9c-11.5-15.2-17.2-35.6-17.2-61c0-36.5,8-75.7,23.9-117.6l34.7-92.2l105.3-18.4l-45.2,107.7
		c-20.7,52-31.1,91.2-31,117.6c0,21.8,7.4,32.7,22.1,32.7c15,0,32.1-12.1,51.3-36.3s35.4-53.9,48.4-89.3l41.4-113.9l99-18.5
		l-94.4,283.8c55.4-25.4,100.5-57.5,135.9-96.9L967.8,234.6z M703.4,375.2c-29.8,13.3-52.7,28.2-68.8,44.8
		c-16.1,16.6-24.1,32.8-24.1,48.8c0,16.2,6.9,24.3,20.7,24.3C658,493.1,682.1,453.8,703.4,375.2z"/>
</g>
<g>
	<path class="st17" d="M232.7,1183.5c-12,11.8-22.3,20.5-30.8,26.4c-8.6,5.8-16.9,8.8-24.9,8.8c-6.3,0-11.3-2.1-15-6.5
		s-5.5-10.2-5.5-17.7c0-10.3,2.6-23.5,7.8-39.5c5.2-15.9,7.8-25.7,7.8-29.1c0-3.1-1.5-4.6-4.7-4.6c-0.9,0-2.1,0.3-3.5,1
		s-3.1,1.6-4.9,2.9c-1.8,1.3-3.8,3-5.9,4.9s-4.3,4.1-6.6,6.6c-2.5,2.5-5,5.2-7.5,8.2c-4.2,5-6.7,9.2-7.5,12.6l-4.8,20.6l-8.7,34
		l-36.5,6.6l14-59.3c1-4.3,2.4-10.6,3.8-19s2.1-13.4,2.1-15c0-3.3-1.1-4.9-3.3-4.9c-0.7,0-1.6,0.3-2.9,1c-1.4,0.7-3.1,1.6-4.9,3.1
		c-2.1,1.5-4.4,3.4-6.7,5.5c-2.6,2.4-5.4,4.9-8.4,7.9c-3.2,3.2-6.4,6.6-9.8,10.5c-4.6,5.2-7.5,11.2-8.7,18.2
		c-1.5,8.3-2.6,15.6-3.2,22.2c-0.7,6.5-1,13.8-1.1,21.9l-32,7.7c-0.8-11-1.1-20.2-1.1-27.6c0-17.6,1.8-32.8,5.5-45.9
		c3.7-13,9.6-28.2,17.9-45.6l34.9-6.7c-6.2,15.6-11,30.8-14.5,45.4c25.9-30,45.6-45.1,59.3-45.1c5,0,9.1,2,12.2,6.1
		c3.2,4.1,4.7,9.4,4.7,16c0,3.1-0.5,8.7-1.4,17c16.3-16.3,27.9-26.8,35-31.8c7.1-4.9,13.6-7.5,19.5-7.5c5.3,0,9.6,2.1,13,6.3
		c3.4,4.2,5,9.6,5,16.1c0,10.3-2.9,23.5-8.5,39.7c-5.6,16.1-8.5,26.8-8.5,32c0,5.4,1.9,8.1,5.9,8.1c2.5,0,5.9-1.6,10.4-5
		c4.5-3.3,12.3-10.9,23.4-22.8v16.3L232.7,1183.5L232.7,1183.5z"/>
	<path class="st17" d="M340.4,1183.5c-12.2,12-23.1,20.8-32.8,26.6c-9.7,5.7-20.4,8.6-32.1,8.6c-13.1,0-23.6-4.2-31.6-12.6
		s-12.1-19.3-12.1-33c0-20.3,7.1-38.7,21.2-55.2s29.7-24.7,46.9-24.7c8.9,0,16,2.4,21.5,6.9s8.1,10.6,8.1,18.2
		c0,19.8-21.2,36-63.4,48.3c3.9,18.7,13.9,28.1,30,28.1c6.3,0,12.4-1.7,18.2-5.1c5.7-3.4,14.4-10.9,26.1-22.7L340.4,1183.5
		L340.4,1183.5z M265,1156.8c24.5-6.9,36.9-19.7,36.9-38.3c0-9.2-3.4-13.8-10.1-13.8c-6.3,0-12.4,4.8-18.2,14.5
		C267.8,1128.8,265,1141.4,265,1156.8z"/>
	<path class="st17" d="M384.7,1099c6.6-1.7,13.3-3.2,20-4.3c6.7-1.1,10.7-1.6,12.1-1.6c0.9,0,1.4,0.4,1.4,1.1c0,1.4-0.4,3-1.1,4.5
		c-1.5,4.4-2.4,8.7-2.4,12.7c0,5,2.9,11.9,8.7,20.4c5.7,8.7,8.6,16.7,8.6,24c0,14.7-7.1,28.8-21.1,42.5
		c-14.1,13.6-28.6,20.4-43.7,20.4c-6.5,0-12.5-1.7-17.9-5.2s-8.1-7.2-8.1-11c0-2.4,2.7-6.6,8-13.1s9.1-9.6,11.4-9.6
		c3.1,0,5.8,4,8.2,11.9c2.4,7.9,6.5,11.9,12.4,11.9c5.8,0,11.3-2.8,16.5-8.2c5.1-5.4,7.7-11.2,7.7-17.5c0-6-3.3-14.1-9.8-24.2
		s-10.8-18.5-13-25.3c-11.1,18-25.2,36.3-42.3,55.2H337v-13C360.7,1145.4,376.6,1121.6,384.7,1099z"/>
	<path class="st17" d="M504.4,1099c6.6-1.7,13.3-3.2,20-4.3c6.7-1.1,10.7-1.6,12.1-1.6c0.9,0,1.4,0.4,1.4,1.1c0,1.4-0.4,3-1.1,4.5
		c-1.5,4.4-2.4,8.7-2.4,12.7c0,5,2.9,11.9,8.7,20.4c5.7,8.7,8.6,16.7,8.6,24c0,14.7-7.1,28.8-21.1,42.5
		c-14.1,13.6-28.6,20.4-43.7,20.4c-6.5,0-12.5-1.7-17.9-5.2s-8.1-7.2-8.1-11c0-2.4,2.7-6.6,8-13.1c5.3-6.4,9.1-9.6,11.4-9.6
		c3.1,0,5.8,4,8.2,11.9c2.4,7.9,6.5,11.9,12.4,11.9c5.8,0,11.3-2.8,16.5-8.2c5.1-5.4,7.7-11.2,7.7-17.5c0-6-3.3-14.1-9.8-24.2
		s-10.8-18.5-13-25.3c-11.1,18-25.2,36.3-42.3,55.2h-3.3v-13C480.4,1145.4,496.3,1121.6,504.4,1099z"/>
	<path class="st17" d="M733.5,1183.5c-15.3,14.6-26.4,24.1-33,28.5s-13,6.6-19,6.6c-15.1,0-22.3-13.4-21.5-40.2
		c-9.6,13.7-18.5,23.8-26.6,30.4c-8.1,6.5-16.5,9.8-25.1,9.8c-8.5,0-15.6-4-21.6-11.9s-8.9-17.7-8.9-29.1c0-14.4,4-28.1,11.9-41.2
		s18.1-23.6,30.5-31.7s23.3-12.1,32.8-12.1c12,0,20.4,5.5,25.2,16.6l29.4-16.3h8.1l-12.7,42.2c-6.5,21.3-9.8,35.8-9.8,43.6
		c0,8.3,3,12.4,8.8,12.4c3.8,0,7.9-1.9,12.4-5.9s10.8-10,19-18.2L733.5,1183.5L733.5,1183.5L733.5,1183.5z M628.1,1191.3
		c9.6,0,18.6-8.2,27.2-24.5c8.5-16.4,12.8-31.5,12.8-45.3c0-5.4-1.2-9.6-3.6-12.6c-2.4-3.1-5.6-4.5-9.6-4.5
		c-9.6,0-18.7,8.2-27.3,24.4c-8.6,16.4-12.9,31.4-12.9,45.1c0,5.2,1.2,9.4,3.8,12.6C620.8,1189.8,624.1,1191.3,628.1,1191.3z"/>
	<path class="st17" d="M874.7,1183.5c-12.2,12.8-26.8,22.2-43.7,28.2c-8,24.8-18.1,44-30.4,57.4c-12.3,13.4-25.2,20.1-38.9,20.1
		c-7.5,0-13.5-2.4-18.2-7.1c-4.6-4.7-6.9-10.9-6.9-18.6c0-10.3,4.6-19.5,13.8-27.6c9.2-8.2,24.7-16,46.7-23.6l6.2-28.4
		c-9.2,10.3-17.2,18-23.9,22.8s-13.5,7.3-20.3,7.3c-8,0-14.5-3.8-19.6-11.2s-7.7-17.3-7.7-29.2c0-19.6,7.5-37.9,22.4-55.1
		s30.8-25.7,47.5-25.7c9.3,0,17.6,4,24.7,11.9c4.3-1.5,9.9-3.9,16.9-6.9l10.2-4.6h3.3c-3.8,11.3-6.6,22.4-8.6,33.1l-13.5,72.2
		c13-4.9,26.3-15.4,39.9-31.6v16.7L874.7,1183.5L874.7,1183.5z M794.1,1225.1c-31,11.1-46.5,24-46.5,38.6c0,4.3,1.3,7.9,3.9,10.6
		c2.6,2.8,5.9,4.1,9.9,4.1c6.9,0,12.9-4.4,18-13.1C784.5,1256.5,789.4,1243.1,794.1,1225.1z M782,1188.2c6.8,0,12.9-4,18.2-12.1
		s9.4-18.3,12.3-30.7c3-12.4,4.4-21,4.4-25.8c0-4.5-1.1-8.3-3.4-11.1c-2.2-3-5.1-4.4-8.4-4.4c-10.2,0-19,6.8-26.7,20.5
		c-7.6,13.7-11.3,27.7-11.3,41.9c0,6.6,1.3,11.9,4.1,15.7C773.9,1186.2,777.4,1188.2,782,1188.2z"/>
	<path class="st17" d="M982.2,1183.5c-12.2,12-23.1,20.8-32.8,26.6c-9.7,5.7-20.4,8.6-32.1,8.6c-13.1,0-23.6-4.2-31.6-12.6
		s-12.1-19.3-12.1-33c0-20.3,7.1-38.7,21.2-55.2c14.1-16.5,29.7-24.7,46.9-24.7c8.9,0,16,2.4,21.5,6.9c5.4,4.6,8.1,10.6,8.1,18.2
		c0,19.8-21.2,36-63.4,48.3c3.9,18.7,13.9,28.1,30,28.1c6.3,0,12.4-1.7,18.2-5.1c5.7-3.4,14.4-10.9,26.1-22.7L982.2,1183.5
		L982.2,1183.5z M906.8,1156.8c24.5-6.9,36.9-19.7,36.9-38.3c0-9.2-3.4-13.8-10.1-13.8c-6.3,0-12.4,4.8-18.2,14.5
		C909.7,1128.8,906.8,1141.4,906.8,1156.8z"/>
	<path class="st17" d="M1026.6,1099c6.6-1.7,13.3-3.2,20-4.3c6.7-1.1,10.7-1.6,12.1-1.6c0.9,0,1.4,0.4,1.4,1.1c0,1.4-0.4,3-1.1,4.5
		c-1.5,4.4-2.4,8.7-2.4,12.7c0,5,2.9,11.9,8.7,20.4c5.7,8.7,8.6,16.7,8.6,24c0,14.7-7.1,28.8-21.1,42.5
		c-14.1,13.6-28.6,20.4-43.7,20.4c-6.5,0-12.5-1.7-17.9-5.2s-8.1-7.2-8.1-11c0-2.4,2.7-6.6,8-13.1c5.3-6.4,9.1-9.6,11.4-9.6
		c3.1,0,5.8,4,8.2,11.9s6.5,11.9,12.4,11.9c5.8,0,11.3-2.8,16.5-8.2c5.1-5.4,7.7-11.2,7.7-17.5c0-6-3.3-14.1-9.8-24.2
		s-10.8-18.5-13-25.3c-11.1,18-25.2,36.3-42.3,55.2h-3.3v-13C1002.6,1145.4,1018.4,1121.6,1026.6,1099z"/>
</g>
<g class="st0">
	<text transform="matrix(1 0 0 1 574.2256 1458.9839)" class="st18 st14 st19">messages</text>
	<text transform="matrix(1 0 0 1 571.394 1325.6274)" class="st20 st14 st21">My</text>
	<text transform="matrix(1 0 0 1 876.1641 1353.2476)" class="st22 st14 st23">356</text>
</g>
<g>
	<path class="st24" d="M1785.4,226.3l193.7,197c3.2,3.2,1.1,8.7-3.4,9l-426.2,29.9L1785.4,226.3z"/>
	<path class="st25" d="M1379.3,632.5l-291.2,642.9c-2,4.5,3.7,8.4,7.1,4.9l661.5-661.5l28.7-392.6L1379.3,632.5z"/>
	<path class="st26" d="M1676.4,335.4l-18.2,249.2l-570,690.8c-2,4.5,3.7,8.4,7.1,4.9l661.5-661.5l28.7-392.6L1676.4,335.4z"/>
	<path class="st24" d="M946.9,211.6l363.8,11.8l420.7,420.7l-178.7,178.7L945.2,215.5C943.8,214,944.9,211.6,946.9,211.6z"/>
	<polygon class="st27" points="1310.7,223.4 1418.2,957.4 1731.4,644.2 	"/>
	<path class="st28" d="M1310.7,223.4l24.4,166.6l209.7,209.7c41.8,41.8,41.8,109.6,0,151.5L1408,887.9l10.2,69.5l313.2-313.2
		L1310.7,223.4z"/>
</g>
</svg>
